<svg xmlns="http://www.w3.org/2000/svg" class="chart-svg" viewBox="0 0 980 232" role="img" aria-labelledby="r1t r1d"><style>
text{font-family:'Bricolage Grotesque',Inter,Helvetica,Arial,sans-serif}
.t{font:500 11px 'JetBrains Mono',monospace;letter-spacing:.12em}.h{font:700 17px 'Bricolage Grotesque',sans-serif}
.p{font:400 14px 'Bricolage Grotesque',sans-serif}.m{font:500 14px 'JetBrains Mono',monospace}.sb{font-size:10px}.bn{font:700 12px 'JetBrains Mono',monospace}
.gn{font:700 15px 'Bricolage Grotesque',sans-serif;fill:#161c1a}.ax{font:400 12px 'JetBrains Mono',monospace;fill:#8a918d}.ref{fill:#161c1a}
.nm{font:400 14px 'Bricolage Grotesque',sans-serif;fill:#555d59}.nm.ours{font-weight:700;fill:#1d45a8}
.val{font:500 13px 'JetBrains Mono',monospace;fill:#555d59}.val.ours{font-weight:700;fill:#1d45a8}.gain{font-size:11px;fill:#8a918d}
.ratio{font:italic 500 13px 'Bricolage Grotesque',sans-serif;fill:#555d59}
</style><rect width="100%" height="100%" fill="#f7f6f2"/><title id="r1t">RQ1: Pass@1 of each selection method, per base LLM</title><desc id="r1d">Pass@1 on SWE-bench Verified with a 4-agent ensemble. Single agent 79.2. Minimax-m2.7: Augment 79.0, Agentless 80.4, TRAE 80.6, TestGRAD 84.2. GLM-5.1: Augment 78.6, Agentless 80.2, TRAE 80.2, TestGRAD 83.6. Deepseek-v3.2: Augment 79.2, Agentless 79.8, TRAE 80.6, TestGRAD 84.0.</desc><text x="4" y="20" class="gn">Minimax-m2.7</text><line x1="92.0" y1="40" x2="92.0" y2="190" stroke="rgba(22,28,26,.10)"/><text x="92.0" y="208" class="ax" text-anchor="middle">78</text><line x1="136.0" y1="40" x2="136.0" y2="190" stroke="rgba(22,28,26,.10)"/><text x="136.0" y="208" class="ax" text-anchor="middle">80</text><line x1="180.0" y1="40" x2="180.0" y2="190" stroke="rgba(22,28,26,.10)"/><text x="180.0" y="208" class="ax" text-anchor="middle">82</text><line x1="224.0" y1="40" x2="224.0" y2="190" stroke="rgba(22,28,26,.10)"/><text x="224.0" y="208" class="ax" text-anchor="middle">84</text><line x1="118.4" y1="36" x2="118.4" y2="190" stroke="#161c1a" stroke-width="1.3" stroke-dasharray="4 3"/><text x="118.4" y="226" class="ax ref" text-anchor="middle">single agent 79.2</text><text x="80" y="62.5" class="nm" text-anchor="end">Augment</text><line x1="118.4" y1="58" x2="114.0" y2="58" stroke="#6b736f" stroke-width="3" stroke-linecap="round" opacity="0.7"/><circle cx="114.0" cy="58" r="5.5" fill="#6b736f"/><text x="130.4" y="62.5" class="val">79.0<tspan class="gain" dx="5">−0.2</tspan></text><text x="80" y="100.5" class="nm" text-anchor="end">Agentless</text><line x1="118.4" y1="96" x2="144.8" y2="96" stroke="#6b736f" stroke-width="3" stroke-linecap="round" opacity="0.7"/><circle cx="144.8" cy="96" r="5.5" fill="#6b736f"/><text x="156.8" y="100.5" class="val">80.4<tspan class="gain" dx="5">+1.2</tspan></text><text x="80" y="138.5" class="nm" text-anchor="end">TRAE</text><line x1="118.4" y1="134" x2="149.2" y2="134" stroke="#6b736f" stroke-width="3" stroke-linecap="round" opacity="0.7"/><circle cx="149.2" cy="134" r="5.5" fill="#6b736f"/><text x="161.2" y="138.5" class="val">80.6<tspan class="gain" dx="5">+1.4</tspan></text><text x="80" y="176.5" class="nm ours" text-anchor="end">TestGRAD</text><line x1="118.4" y1="172" x2="228.4" y2="172" stroke="#2a5bd7" stroke-width="4" stroke-linecap="round" opacity="1"/><circle cx="228.4" cy="172" r="7" fill="#2a5bd7"/><text x="240.4" y="176.5" class="val ours">84.2<tspan class="gain" dx="5">+5.0</tspan></text><text x="334" y="20" class="gn">GLM-5.1</text><line x1="422.0" y1="40" x2="422.0" y2="190" stroke="rgba(22,28,26,.10)"/><text x="422.0" y="208" class="ax" text-anchor="middle">78</text><line x1="466.0" y1="40" x2="466.0" y2="190" stroke="rgba(22,28,26,.10)"/><text x="466.0" y="208" class="ax" text-anchor="middle">80</text><line x1="510.0" y1="40" x2="510.0" y2="190" stroke="rgba(22,28,26,.10)"/><text x="510.0" y="208" class="ax" text-anchor="middle">82</text><line x1="554.0" y1="40" x2="554.0" y2="190" stroke="rgba(22,28,26,.10)"/><text x="554.0" y="208" class="ax" text-anchor="middle">84</text><line x1="448.4" y1="36" x2="448.4" y2="190" stroke="#161c1a" stroke-width="1.3" stroke-dasharray="4 3"/><text x="448.4" y="226" class="ax ref" text-anchor="middle">single agent 79.2</text><text x="410" y="62.5" class="nm" text-anchor="end">Augment</text><line x1="448.4" y1="58" x2="435.2" y2="58" stroke="#6b736f" stroke-width="3" stroke-linecap="round" opacity="0.7"/><circle cx="435.2" cy="58" r="5.5" fill="#6b736f"/><text x="460.4" y="62.5" class="val">78.6<tspan class="gain" dx="5">−0.6</tspan></text><text x="410" y="100.5" class="nm" text-anchor="end">Agentless</text><line x1="448.4" y1="96" x2="470.4" y2="96" stroke="#6b736f" stroke-width="3" stroke-linecap="round" opacity="0.7"/><circle cx="470.4" cy="96" r="5.5" fill="#6b736f"/><text x="482.4" y="100.5" class="val">80.2<tspan class="gain" dx="5">+1.0</tspan></text><text x="410" y="138.5" class="nm" text-anchor="end">TRAE</text><line x1="448.4" y1="134" x2="470.4" y2="134" stroke="#6b736f" stroke-width="3" stroke-linecap="round" opacity="0.7"/><circle cx="470.4" cy="134" r="5.5" fill="#6b736f"/><text x="482.4" y="138.5" class="val">80.2<tspan class="gain" dx="5">+1.0</tspan></text><text x="410" y="176.5" class="nm ours" text-anchor="end">TestGRAD</text><line x1="448.4" y1="172" x2="545.2" y2="172" stroke="#2a5bd7" stroke-width="4" stroke-linecap="round" opacity="1"/><circle cx="545.2" cy="172" r="7" fill="#2a5bd7"/><text x="557.2" y="176.5" class="val ours">83.6<tspan class="gain" dx="5">+4.4</tspan></text><text x="664" y="20" class="gn">Deepseek-v3.2</text><line x1="752.0" y1="40" x2="752.0" y2="190" stroke="rgba(22,28,26,.10)"/><text x="752.0" y="208" class="ax" text-anchor="middle">78</text><line x1="796.0" y1="40" x2="796.0" y2="190" stroke="rgba(22,28,26,.10)"/><text x="796.0" y="208" class="ax" text-anchor="middle">80</text><line x1="840.0" y1="40" x2="840.0" y2="190" stroke="rgba(22,28,26,.10)"/><text x="840.0" y="208" class="ax" text-anchor="middle">82</text><line x1="884.0" y1="40" x2="884.0" y2="190" stroke="rgba(22,28,26,.10)"/><text x="884.0" y="208" class="ax" text-anchor="middle">84</text><line x1="778.4" y1="36" x2="778.4" y2="190" stroke="#161c1a" stroke-width="1.3" stroke-dasharray="4 3"/><text x="778.4" y="226" class="ax ref" text-anchor="middle">single agent 79.2</text><text x="740" y="62.5" class="nm" text-anchor="end">Augment</text><line x1="778.4" y1="58" x2="778.4" y2="58" stroke="#6b736f" stroke-width="3" stroke-linecap="round" opacity="0.7"/><circle cx="778.4" cy="58" r="5.5" fill="#6b736f"/><text x="790.4" y="62.5" class="val">79.2<tspan class="gain" dx="5">±0.0</tspan></text><text x="740" y="100.5" class="nm" text-anchor="end">Agentless</text><line x1="778.4" y1="96" x2="791.6" y2="96" stroke="#6b736f" stroke-width="3" stroke-linecap="round" opacity="0.7"/><circle cx="791.6" cy="96" r="5.5" fill="#6b736f"/><text x="803.6" y="100.5" class="val">79.8<tspan class="gain" dx="5">+0.6</tspan></text><text x="740" y="138.5" class="nm" text-anchor="end">TRAE</text><line x1="778.4" y1="134" x2="809.2" y2="134" stroke="#6b736f" stroke-width="3" stroke-linecap="round" opacity="0.7"/><circle cx="809.2" cy="134" r="5.5" fill="#6b736f"/><text x="821.2" y="138.5" class="val">80.6<tspan class="gain" dx="5">+1.4</tspan></text><text x="740" y="176.5" class="nm ours" text-anchor="end">TestGRAD</text><line x1="778.4" y1="172" x2="884.0" y2="172" stroke="#2a5bd7" stroke-width="4" stroke-linecap="round" opacity="1"/><circle cx="884.0" cy="172" r="7" fill="#2a5bd7"/><text x="896.0" y="176.5" class="val ours">84.0<tspan class="gain" dx="5">+4.8</tspan></text></svg>