<svg xmlns="http://www.w3.org/2000/svg" class="chart-svg" viewBox="0 0 980 300" role="img" aria-labelledby="r4t r4d"><style>
text{font-family:'Bricolage Grotesque',Inter,Helvetica,Arial,sans-serif}
.t{font:500 11px 'JetBrains Mono',monospace;letter-spacing:.12em}.h{font:700 17px 'Bricolage Grotesque',sans-serif}
.p{font:400 14px 'Bricolage Grotesque',sans-serif}.m{font:500 14px 'JetBrains Mono',monospace}.sb{font-size:10px}.bn{font:700 12px 'JetBrains Mono',monospace}
.gn{font:700 15px 'Bricolage Grotesque',sans-serif;fill:#161c1a}.ax{font:400 12px 'JetBrains Mono',monospace;fill:#8a918d}.ref{fill:#161c1a}
.nm{font:400 14px 'Bricolage Grotesque',sans-serif;fill:#555d59}.nm.ours{font-weight:700;fill:#1d45a8}
.val{font:500 13px 'JetBrains Mono',monospace;fill:#555d59}.val.ours{font-weight:700;fill:#1d45a8}.gain{font-size:11px;fill:#8a918d}
.ratio{font:italic 500 13px 'Bricolage Grotesque',sans-serif;fill:#555d59}
</style><rect width="100%" height="100%" fill="#f7f6f2"/><title id="r4t">RQ4: tokens of failure-history context, raw memory against momentum</title><desc id="r4d">Average tokens per iteration, log scale, iterations 2 to 6. Deepseek-v3.2: raw memory from 2,299 to 16,408 tokens, momentum from 26 to 147 tokens; GLM-5.1: raw memory from 896 to 2,167 tokens, momentum from 26 to 86 tokens; Minimax-m2.7: raw memory from 1,709 to 3,450 tokens, momentum from 43 to 105 tokens. Compression ratios at iterations 4 and 6: above 100 times for Deepseek-v3.2, 39 and 25 times for GLM-5.1, 34 and 33 times for Minimax-m2.7.</desc><text x="4" y="18" class="gn">Deepseek-v3.2</text><line x1="50" y1="250.0" x2="262" y2="250.0" stroke="rgba(22,28,26,.10)"/><text x="42" y="254.0" class="ax" text-anchor="end">10</text><line x1="50" y1="190.0" x2="262" y2="190.0" stroke="rgba(22,28,26,.10)"/><text x="42" y="194.0" class="ax" text-anchor="end">100</text><line x1="50" y1="130.1" x2="262" y2="130.1" stroke="rgba(22,28,26,.10)"/><text x="42" y="134.1" class="ax" text-anchor="end">1k</text><line x1="50" y1="70.1" x2="262" y2="70.1" stroke="rgba(22,28,26,.10)"/><text x="42" y="74.1" class="ax" text-anchor="end">10k</text><text x="50.0" y="270" class="ax" text-anchor="middle">2</text><text x="103.0" y="270" class="ax" text-anchor="middle">3</text><text x="156.0" y="270" class="ax" text-anchor="middle">4</text><text x="209.0" y="270" class="ax" text-anchor="middle">5</text><text x="262.0" y="270" class="ax" text-anchor="middle">6</text><text x="156.0" y="292" class="ax" text-anchor="middle">iteration</text><polyline points="50.0,108.4 103.0,89.5 156.0,71.8 209.0,62.1 262.0,57.2" fill="none" stroke="#161c1a" stroke-width="2.2" stroke-linejoin="round"/><circle cx="50.0" cy="108.4" r="3.8" fill="#161c1a"/><circle cx="103.0" cy="89.5" r="3.8" fill="#161c1a"/><circle cx="156.0" cy="71.8" r="3.8" fill="#161c1a"/><circle cx="209.0" cy="62.1" r="3.8" fill="#161c1a"/><circle cx="262.0" cy="57.2" r="3.8" fill="#161c1a"/><polyline points="50.0,224.7 103.0,214.2 156.0,195.4 209.0,185.8 262.0,180.1" fill="none" stroke="#2a5bd7" stroke-width="2.8" stroke-linejoin="round"/><rect x="46.4" y="221.1" width="7.2" height="7.2" fill="#2a5bd7"/><rect x="99.4" y="210.6" width="7.2" height="7.2" fill="#2a5bd7"/><rect x="152.4" y="191.8" width="7.2" height="7.2" fill="#2a5bd7"/><rect x="205.4" y="182.2" width="7.2" height="7.2" fill="#2a5bd7"/><rect x="258.4" y="176.5" width="7.2" height="7.2" fill="#2a5bd7"/><text x="272" y="61.2" class="val">16.4k</text><text x="272" y="184.1" class="val ours">147</text><text x="156.0" y="59.8" class="ratio" text-anchor="middle">&gt;100×</text><text x="262.0" y="45.2" class="ratio" text-anchor="middle">&gt;100×</text><text x="334" y="18" class="gn">GLM-5.1</text><line x1="380" y1="250.0" x2="592" y2="250.0" stroke="rgba(22,28,26,.10)"/><text x="372" y="254.0" class="ax" text-anchor="end">10</text><line x1="380" y1="190.0" x2="592" y2="190.0" stroke="rgba(22,28,26,.10)"/><text x="372" y="194.0" class="ax" text-anchor="end">100</text><line x1="380" y1="130.1" x2="592" y2="130.1" stroke="rgba(22,28,26,.10)"/><text x="372" y="134.1" class="ax" text-anchor="end">1k</text><line x1="380" y1="70.1" x2="592" y2="70.1" stroke="rgba(22,28,26,.10)"/><text x="372" y="74.1" class="ax" text-anchor="end">10k</text><text x="380.0" y="270" class="ax" text-anchor="middle">2</text><text x="433.0" y="270" class="ax" text-anchor="middle">3</text><text x="486.0" y="270" class="ax" text-anchor="middle">4</text><text x="539.0" y="270" class="ax" text-anchor="middle">5</text><text x="592.0" y="270" class="ax" text-anchor="middle">6</text><text x="486.0" y="292" class="ax" text-anchor="middle">iteration</text><polyline points="380.0,132.9 433.0,125.6 486.0,118.0 539.0,113.0 592.0,109.9" fill="none" stroke="#161c1a" stroke-width="2.2" stroke-linejoin="round"/><circle cx="380.0" cy="132.9" r="3.8" fill="#161c1a"/><circle cx="433.0" cy="125.6" r="3.8" fill="#161c1a"/><circle cx="486.0" cy="118.0" r="3.8" fill="#161c1a"/><circle cx="539.0" cy="113.0" r="3.8" fill="#161c1a"/><circle cx="592.0" cy="109.9" r="3.8" fill="#161c1a"/><polyline points="380.0,224.9 433.0,218.7 486.0,213.4 539.0,204.1 592.0,193.9" fill="none" stroke="#2a5bd7" stroke-width="2.8" stroke-linejoin="round"/><rect x="376.4" y="221.3" width="7.2" height="7.2" fill="#2a5bd7"/><rect x="429.4" y="215.1" width="7.2" height="7.2" fill="#2a5bd7"/><rect x="482.4" y="209.8" width="7.2" height="7.2" fill="#2a5bd7"/><rect x="535.4" y="200.5" width="7.2" height="7.2" fill="#2a5bd7"/><rect x="588.4" y="190.3" width="7.2" height="7.2" fill="#2a5bd7"/><text x="602" y="113.9" class="val">2.2k</text><text x="602" y="197.9" class="val ours">86</text><text x="486.0" y="106.0" class="ratio" text-anchor="middle">39×</text><text x="592.0" y="97.9" class="ratio" text-anchor="middle">25×</text><text x="664" y="18" class="gn">Minimax-m2.7</text><line x1="710" y1="250.0" x2="922" y2="250.0" stroke="rgba(22,28,26,.10)"/><text x="702" y="254.0" class="ax" text-anchor="end">10</text><line x1="710" y1="190.0" x2="922" y2="190.0" stroke="rgba(22,28,26,.10)"/><text x="702" y="194.0" class="ax" text-anchor="end">100</text><line x1="710" y1="130.1" x2="922" y2="130.1" stroke="rgba(22,28,26,.10)"/><text x="702" y="134.1" class="ax" text-anchor="end">1k</text><line x1="710" y1="70.1" x2="922" y2="70.1" stroke="rgba(22,28,26,.10)"/><text x="702" y="74.1" class="ax" text-anchor="end">10k</text><text x="710.0" y="270" class="ax" text-anchor="middle">2</text><text x="763.0" y="270" class="ax" text-anchor="middle">3</text><text x="816.0" y="270" class="ax" text-anchor="middle">4</text><text x="869.0" y="270" class="ax" text-anchor="middle">5</text><text x="922.0" y="270" class="ax" text-anchor="middle">6</text><text x="816.0" y="292" class="ax" text-anchor="middle">iteration</text><polyline points="710.0,116.1 763.0,115.4 816.0,107.5 869.0,102.0 922.0,97.8" fill="none" stroke="#161c1a" stroke-width="2.2" stroke-linejoin="round"/><circle cx="710.0" cy="116.1" r="3.8" fill="#161c1a"/><circle cx="763.0" cy="115.4" r="3.8" fill="#161c1a"/><circle cx="816.0" cy="107.5" r="3.8" fill="#161c1a"/><circle cx="869.0" cy="102.0" r="3.8" fill="#161c1a"/><circle cx="922.0" cy="97.8" r="3.8" fill="#161c1a"/><polyline points="710.0,211.9 763.0,205.6 816.0,199.3 869.0,193.7 922.0,188.7" fill="none" stroke="#2a5bd7" stroke-width="2.8" stroke-linejoin="round"/><rect x="706.4" y="208.3" width="7.2" height="7.2" fill="#2a5bd7"/><rect x="759.4" y="202.0" width="7.2" height="7.2" fill="#2a5bd7"/><rect x="812.4" y="195.7" width="7.2" height="7.2" fill="#2a5bd7"/><rect x="865.4" y="190.1" width="7.2" height="7.2" fill="#2a5bd7"/><rect x="918.4" y="185.1" width="7.2" height="7.2" fill="#2a5bd7"/><text x="932" y="101.8" class="val">3.4k</text><text x="932" y="192.7" class="val ours">105</text><text x="816.0" y="95.5" class="ratio" text-anchor="middle">34×</text><text x="922.0" y="85.8" class="ratio" text-anchor="middle">33×</text></svg>